<svg width="61" height="59" viewBox="0 0 61 59" fill="none" xmlns="http://www.w3.org/2000/svg">
<rect width="61" height="59" fill="#AD84FE"/>
<path d="M32.5454 27.4545V7H53V27.4545H32.5454Z" fill="#0085FF" stroke="black"/>
<path d="M8 27.4545V7H28.4545V27.4545H8Z" fill="#AF3A14" stroke="black"/>
<path d="M8 27.4545V7H28.4545V27.4545H8Z" fill="#AF3A14" stroke="black"/>
<path d="M10.2362 23.8863L18.2273 10.0454L26.2183 23.8863H10.2362Z" fill="#F5FA00" stroke="black"/>
<path d="M32.5454 52V31.5454H53V52H32.5454Z" fill="#00FF85" stroke="black"/>
<path d="M49.432 16.716C49.432 20.077 46.4861 22.8637 42.7729 22.8637C39.0596 22.8637 36.1138 20.077 36.1138 16.716C36.1138 13.3549 39.0596 10.5682 42.7729 10.5682C46.4861 10.5682 49.432 13.3549 49.432 16.716Z" fill="#8FFF00" stroke="black"/>
<path d="M8 52V31.5454H28.4545V52H8Z" fill="#0085FF" stroke="black"/>
<path d="M24.8865 41.2614C24.8865 44.6224 21.9407 47.4091 18.2275 47.4091C14.5142 47.4091 11.5684 44.6224 11.5684 41.2614C11.5684 37.9003 14.5142 35.1136 18.2275 35.1136C21.9407 35.1136 24.8865 37.9003 24.8865 41.2614Z" fill="#8FFF00" stroke="black"/>
<rect x="36.1138" y="36.1364" width="13.3182" height="11.2727" fill="#FD0000" stroke="black"/>
</svg>
