<svg width="21" height="24" viewBox="0 0 21 24" fill="none" xmlns="http://www.w3.org/2000/svg">
<path d="M11.2834 12.8479C12.0711 14.3668 13.3698 15.4853 14.721 16.3577C15.7856 17.0452 16.919 17.601 17.8901 18.0773C18.1466 18.2031 18.3917 18.3233 18.6213 18.4389C19.1819 18.7213 19.6404 18.9712 19.9739 19.2103C20.3231 19.4606 20.4459 19.6377 20.4748 19.7425C20.488 19.7902 20.5101 19.9118 20.2665 20.1692C20.0136 20.4364 19.5438 20.768 18.7617 21.1735C12.5806 24.3791 5.37217 22.5068 2.60102 17.1633C-0.170134 11.8199 2.45222 4.84925 8.63337 1.64365C9.41401 1.23881 9.9548 1.05198 10.3184 1.00624C10.6627 0.96293 10.7635 1.05128 10.8106 1.10984C10.8942 1.21385 10.9731 1.4414 10.985 1.8867C10.9965 2.31479 10.9454 2.85234 10.8629 3.49084C10.8263 3.7745 10.7836 4.07636 10.7388 4.39251C10.586 5.47176 10.4097 6.71761 10.3708 7.9748C10.3204 9.6068 10.4962 11.33 11.2834 12.8479Z" fill="#FDFCFF" stroke="#767272"/>
</svg>
